<svg xmlns="http://www.w3.org/2000/svg" width="191.92" height="312.901" viewBox="0 0 191.92 312.901"><g transform="translate(-221.66 -109.499)"><ellipse cx="94.34" cy="54.46" rx="94.34" ry="54.46" transform="translate(221.66 313.48)" fill="#e0e0e0"/><g transform="translate(223.049 109.499)"><g transform="translate(0 0)"><path d="M363.01,199.3c-14.07-.47-21.05,6.76-29.57,19.06s-32,46.4-32,46.4l18.27,10.55,40-54.87Z" transform="translate(-250.87 -109.499)" fill="#ffa8a7"/><path d="M290.5,109.57c30.55,1.52,42.91,25.79,38.67,48-3.68,19.26-18.16,29.68-37.89,29.68h-2.47c-21.47,0-35.76-22-38.4-33.86C244.234,125.85,263.424,108.23,290.5,109.57Z" transform="translate(-165.654 -109.499)" fill="#37474f"/><path d="M277.927,396.47c-.75,18.47,29.51,22.09,56.09,9.41,20.05-9.56,29-16.46,47.25-30.08,22.61-16.91,29.39-42.52,13.26-72.94l-76.91-4C304.227,314.38,256,335,240,371.68c-7.77,19.39,18.92,29.6,38,24.79Z" transform="translate(-228.417 -109.499)" fill="#455a64"/><path d="M302.617,396.47c2-17.41,15.25-26,26.62-34.43S364.5,339,364.5,339s-11.88,2.77-22.78-8.44a16.55,16.55,0,0,0,7.66,11.79s-33.07,18.91-43,34.94a26.88,26.88,0,0,0-3.76,19.18Z" transform="translate(-253.107 -109.499)" fill="#37474f"/><path d="M292.37,199.3h8.81c8.53.6,17,1.26,17,1.26,13.66,4.93,13.6,15.7,14.28,21.35,1,8-1.26,12.56-3.89,20.16l-12.6,36.44s4.88,10.88,11.73,24.35c-31.62,17.64-70.07,11.75-79.57-1.13-.4-2.73,1-31.63,2.54-45.58a21.71,21.71,0,0,1-3.91-29.93c11.89-16.25,22.71-26.05,27-26.92Z" transform="translate(-161.6 -109.499)" fill="#17a2b8"/><path d="M292.37,199.3h8.81c8.53.6,17,1.26,17,1.26,13.66,4.93,13.6,15.7,14.28,21.35,1,8-1.26,12.56-3.89,20.16l-12.6,36.44s4.88,10.88,11.73,24.35c-31.62,17.64-70.07,11.75-79.57-1.13-.4-2.73,1-31.63,2.54-45.58a21.71,21.71,0,0,1-3.91-29.93c11.89-16.25,22.71-26.05,27-26.92Z" transform="translate(-161.6 -109.499)" opacity="0.3"/><path d="M299.61,284.06c1.08,2.32,2.48,5.27,4.11,8.61.28.59.57,1.19.87,1.79.37.76.75,1.54,1.15,2.33,1,1.94,2,4,3,6.07-1.17.65-2.35,1.25-3.53,1.84-21.16,10.52-44.72,11.05-60.41,6.35a91.7,91.7,0,0,0,32-1.39,19.1,19.1,0,0,0,14.23-23.28,7.236,7.236,0,0,0-.32-1c-2-4.89-6.41-4.25-6.41-4.25a18.43,18.43,0,0,0,7.95-11.76l1.66-5.07a59.43,59.43,0,0,0,.56-35.56l-.09-.33,13.44-7.66,2.35,1.63h0a29.2,29.2,0,0,1,1.28,7.29h0v2.8c0,.54-.06,1.07-.11,1.6s-.08.85-.14,1.27-.12.9-.2,1.35-.21,1.09-.33,1.63c-.08.34-.14.69-.23,1-.23.89-.49,1.78-.79,2.65l-12.6,36.44S297.98,280.59,299.61,284.06Z" transform="translate(-142.67 -109.499)" opacity="0.15"/><path d="M264.18,128.46c-2,1-7.41,11.35-6.89,33.88.44,19.1,6.63,23.81,9.74,25.17s9.1.53,14.93-.44v11.46s-8.06,9.36-7.55,14.61,11.63,6.5,19.16,1.37a48.83,48.83,0,0,0,12.37-12.95v-27.7s3.18,3.49,9.62-.78,7.43-13.09,3.69-16.89-11.81-2.59-13.31,2.65c0,0-9.44,1.67-22.1-6.48C270.17,143.56,265.96,136.56,264.18,128.46Z" transform="translate(-165.1 -109.499)" fill="#ffa8a7"/><path d="M312.532,149.81l5.34-2.55a2.84,2.84,0,0,0-3.85-1.46,3.1,3.1,0,0,0-1.49,4.01Z" transform="translate(-216.572 -109.499)" fill="#263238"/><path d="M288.3,146.76l5,3.15a2.83,2.83,0,0,0-.82-4,3.09,3.09,0,0,0-4.18.85Z" transform="translate(-168.52 -109.499)" fill="#263238"/><path d="M278.652,153.58l-.33,11.68a5.67,5.67,0,0,1-5.8-5.81,6.14,6.14,0,0,1,6.13-5.87Z" transform="translate(-137.592 -109.499)" fill="#37474f"/><path d="M293.13,156.81a2.4,2.4,0,1,0,2.52-2.38,2.44,2.44,0,0,0-2.52,2.38Z" transform="translate(-177.48 -109.499)" fill="#263238"/><path d="M306.186,173.71l-6.33,2a3.26,3.26,0,0,0,4.12,2.27,3.47,3.47,0,0,0,2.21-4.27Z" transform="translate(-192.606 -109.499)" fill="#f28f8f"/><path d="M311.7,155.81a2.4,2.4,0,1,0,2.52-2.38,2.44,2.44,0,0,0-2.52,2.38Z" transform="translate(-214.62 -109.499)" fill="#263238"/><path d="M312.76,154.43l-.39,14.46-7.6-2.36Z" transform="translate(-203.95 -109.499)" fill="#f28f8f"/><path d="M275.98,187.07c6.14-.8,18.77-4.43,20.74-9.43,0,0-.66,3.14-4.43,6.38s-16.31,6.88-16.31,6.88Z" transform="translate(-159.12 -109.499)" fill="#f28f8f"/><path d="M409.758,239.75s.24-3.52-4.4-6.95-10.7-6.18-12.68-14.7l-6.39,3.69,10.76,18.1Z" transform="translate(-382.468 -109.499)" fill="#17a2b8"/><path d="M409.758,239.75s.24-3.52-4.4-6.95-10.7-6.18-12.68-14.7l-6.39,3.69,10.76,18.1Z" transform="translate(-382.468 -109.499)" fill="#fff" opacity="0.75"/><path d="M311.25,239.75s7-3.5,22.29-.34,27.81,7.25,57.21,6.6l-7.63,4.41L306.79,246Z" transform="translate(-283.96 -109.499)" fill="#17a2b8"/><path d="M311.25,239.75s7-3.5,22.29-.34,27.81,7.25,57.21,6.6l-7.63,4.41L306.79,246Z" transform="translate(-283.96 -109.499)" fill="#fff" opacity="0.75"/><path d="M287.13,246.01l27.29,87.83-7.63,4.41L279.5,250.42Z" transform="translate(-180.34 -109.499)" fill="#17a2b8"/><path d="M287.13,246.01l27.29,87.83-7.63,4.41L279.5,250.42Z" transform="translate(-180.34 -109.499)" fill="#fff" opacity="0.8"/><path d="M287.13,246.01l27.29,87.83-7.63,4.41L279.5,250.42Z" transform="translate(-180.34 -109.499)" opacity="0.1"/><g transform="translate(10.22 113.321)" opacity="0.1"><path d="M388.519,222.82a15.109,15.109,0,0,0,3.14,4.94,45.4,45.4,0,0,0,4.38,4,30.332,30.332,0,0,1,4.3,3.91,10.7,10.7,0,0,1,1.54,2.33,5.63,5.63,0,0,1,.55,2.59l.93.14a6.35,6.35,0,0,0-.74-3.08,11.45,11.45,0,0,0-1.72-2.5,30.769,30.769,0,0,0-4.54-3.81,47.564,47.564,0,0,1-4.5-3.75A15.13,15.13,0,0,1,388.519,222.82Z" transform="translate(-388.519 -222.82)"/><path d="M392.71,227.77a14.879,14.879,0,0,0,2.35,3c.88.93,1.78,1.82,2.64,2.76a19.751,19.751,0,0,1,2.3,3,7.859,7.859,0,0,1,1.2,3.39l.94-.12a8.93,8.93,0,0,0-1.55-3.66,20.268,20.268,0,0,0-2.56-2.9c-.92-.89-1.88-1.73-2.8-2.6a14.82,14.82,0,0,1-2.52-2.87Z" transform="translate(-391.49 -222.82)"/><path d="M385.93,246.66a113.347,113.347,0,0,1-12.44-1.83c-4.12-.83-8.19-1.85-12.28-2.8a57.449,57.449,0,0,0-12.52-1.63,45.006,45.006,0,0,0-6.35.25,20.333,20.333,0,0,0-3.15.6,7.83,7.83,0,0,0-3,1.48l.65.68a7.05,7.05,0,0,1,2.59-1.32,21.141,21.141,0,0,1,3-.63,44.48,44.48,0,0,1,6.22-.36,56.616,56.616,0,0,1,12.472,1.391c4.1.869,8.2,1.82,12.328,2.57a114.328,114.328,0,0,0,12.48,1.6Z" transform="translate(-318.76 -222.82)"/><path d="M384.84,246.28c-2.37-.32-4.7-.81-7.05-1.26s-4.7-.88-7.07-1.19a45.4,45.4,0,0,0-7.19-.48,19.911,19.911,0,0,0-7.16,1.32l.38.86a19.11,19.11,0,0,1,6.81-1.48,45.558,45.558,0,0,1,7.1.24c2.37.24,4.73.59,7.09,1S382.46,246,384.84,246.28Z" transform="translate(-337.85 -222.82)"/></g><path d="M371.72,217.4l12.58,21.45,29.28,94.18-3.82,2.2-12.56-26.3-29.28-89.34Z" transform="translate(-367.92 -109.499)" fill="#17a2b8"/><path d="M384.31,241.06l-12.57-21.47,29.28,89.34,12.56,26.3Z" transform="translate(-371.74 -109.499)" opacity="0.2"/><path d="M283.9,246.1l75.28,4.83,29.28,94.17-3.82,2.2-75.28-4.83L280.09,248.3Z" transform="translate(-254.97 -109.499)" fill="#17a2b8"/><path d="M359.19,253.13l29.27,94.17-75.28-4.83L283.91,248.3Z" transform="translate(-258.79 -109.499)" opacity="0.2"/><path d="M375.21,342.92a.49.49,0,0,0,.37-.18.5.5,0,0,0,.08-.43,4.85,4.85,0,0,1,4.94-6.28.49.49,0,0,0,.4-.18.45.45,0,0,0,.08-.43l-22.27-71.63a.47.47,0,0,0-.41-.33,10.22,10.22,0,0,1-9.07-7.13.47.47,0,0,0-.42-.33l-51.72-3.32a.49.49,0,0,0-.4.18.47.47,0,0,0-.08.43,4.79,4.79,0,0,1-.82,4.44,4.73,4.73,0,0,1-4.12,1.84.46.46,0,0,0-.4.18.45.45,0,0,0-.08.43l22.26,71.63a.48.48,0,0,0,.42.33,10.24,10.24,0,0,1,9.07,7.13.46.46,0,0,0,.42.33l51.72,3.32Zm4.78-7.84a5.8,5.8,0,0,0-5.39,6.86l-50.77-3.26a11.16,11.16,0,0,0-9.48-7.45l-22-70.71a5.8,5.8,0,0,0,5.4-6.86l50.76,3.26a11.18,11.18,0,0,0,9.48,7.45Z" transform="translate(-258.79 -109.499)" fill="#fafafa"/><path d="M283.9,250.93l-3.81,2.2,29.27,94.17,3.82-2.2Z" transform="translate(-179.69 -109.499)" opacity="0.3"/><path d="M371.72,248.3l-12.54-7.24,29.27,94.17c1.95,5.08,6.26,7.35,12.55,7.24Z" transform="translate(-346.6 -109.499)" fill="#17a2b8"/><path d="M371.72,248.3l-12.54-7.24,29.27,94.17c2.19,5.37,6.62,7.42,12.55,7.24Z" transform="translate(-346.6 -109.499)" opacity="0.3"/><path d="M387.177,238.61c2.33-1.37,7-.86,10.48,1.14s4.38,4.72,2.05,6.09l-4.22,2.46-12.54-7.24,3.81-2.21Z" transform="translate(-370.367 -109.499)" fill="#455a64"/><path d="M396.3,269.8c-4.52.09-9.43-.48-11.62-4.22l-2.91-9.32c2.75,3.76,6.35,5.72,12,5.56Z" transform="translate(-364.49 -109.499)" fill="#e0e0e0"/><path d="M388.46,238.85c.74,3.62,5.36,5.88,12.55,7.25l-3.81,2.2c-6.18-.71-10.26-3.21-12.55-7.24Z" transform="translate(-372.08 -109.499)" fill="#17a2b8"/><path d="M289.168,200.56c7.82.47,16.13,3.07,19.69,17.22s13.25,61.62,14,68,.9,11.53-14.43,16.44c-17.3,5.53-45.26,7.7-53.16,8.12-14.57.79-24.28-3.5-28.93-11.87s-6-19.51,7.08-14.11c13.88,5.74,19.7,5.88,19.7,5.88l-2.66-8.56c4.35,1.89,8,7.84,12.35,8.56,3.86.65,33.25-9.52,33.25-9.52l-10-42.67S276.928,211.16,289.168,200.56Z" transform="translate(-132.588 -109.499)" fill="#ffa8a7"/><path d="M277.989,184.77a65.491,65.491,0,0,0,5.2,5.13c3.51,3.42,6,6.41,7.63,11s1.42,10.11-1.54,14-8,5.7-10.09,10a22.552,22.552,0,0,0-1.53,6.7c-.7,4.93-2.22,9.87-5.25,13.83-4.91,6.44-15.41,9.69-22.12,3.82a15.91,15.91,0,0,1-4.34-7.45,26.13,26.13,0,0,1,.37-17.58c2-4.94,5.83-8.9,9.36-12.91,3.15-3.58,7.31-8.23,8-13.17,0,0,.13-9.19.06-13.55,0-2.13,0-4.28,2.06-5.4a13.38,13.38,0,0,1,5.18-1.78c2.82-.14,3.3.21,3.3.21a21.54,21.54,0,0,0,3.71,7.15Z" transform="translate(-122.859 -109.499)" fill="#37474f"/><path d="M389.448,264c.91-3,4.28,2.63,5.76,11.22,1.41,8.22,3.35,16.81,3.35,16.81l2.27,7s-5.43-3.36-9.86-12.57S386.868,272.47,389.448,264Z" transform="translate(-374.808 -109.499)" fill="#ffa8a7"/></g></g></g></svg>