<svg xmlns="http://www.w3.org/2000/svg" xmlns:xlink="http://www.w3.org/1999/xlink" width="250" height="250" viewBox="0 0 250 250"><defs><clipPath id="a"><rect width="250" height="250" fill="#790909"/></clipPath></defs><g clip-path="url(#a)"><g transform="translate(0 0.59)"><ellipse cx="125" cy="17.97" rx="125" ry="17.97" transform="translate(0 212.881)" fill="#e6e6e6" opacity="0.45"/><path d="M114.99,237.173s2.293,3.262,5.641,2.648,5.085,2.351,2.37,3.991-11.35-.077-11.35-.077l-1.075-4.8Z" transform="translate(89.324 -15.705)" fill="#17a2b8"/><rect width="112.988" height="195.055" transform="translate(49.975 35.805)" fill="#e6e6e6"/><path d="M97.933,91.411s13.614,4.682,17.691,23.63,9.114,32.859,0,38.136S94.518,138.7,94.518,138.7Z" transform="translate(108.98 -15.705)" fill="#17a2b8"/><path d="M99.634,138.7l3.454-47.289s13.614,4.682,17.691,23.63" transform="translate(103.826 -15.705)" fill="#fff" opacity="0.2"/><path d="M237.048,38.587s10.246-2.753,12.472-12.271c0,0-15.84-3.262-16.31,13.1Z" transform="translate(-158.493 -15.705)" fill="#17a2b8" opacity="0.58"/><path d="M250.6,37.56s7.2-11.263.959-21.855c0,0-12.088,7.6-6.793,21.855Z" transform="translate(-173.294 -15.705)" fill="#17a2b8" opacity="0.73"/><path d="M264.124,37.56S260.392,25.616,248.985,23.3c0,0-2.168,7.742,7.339,14.257Z" transform="translate(-188.658 -15.705)" fill="#17a2b8"/><path d="M258.414,37.33l-2.13,14.18H243.217l-1.861-14.18Z" transform="translate(-175.532 -15.705)" fill="#24285b"/><rect width="7.867" height="28.859" transform="translate(138.724 193.731) rotate(-156.18)" fill="#fff"/><rect width="87.478" height="42.684" transform="translate(63.013 49.131)" fill="#a5a5a5" opacity="0.4"/><rect width="7.407" height="28.859" transform="translate(123.868 113.622)" fill="#fff"/><path d="M178.391,95.249s-12.252,0-16.089,25.319,2.149,74.536,33.838,112.566V158.176Z" transform="translate(-33.177 -15.705)" fill="#a5a5a5" opacity="0.4"/><rect width="87.478" height="42.684" transform="translate(63.013 99.787)" fill="#a5a5a5" opacity="0.4"/><path d="M149.753,82.1s-34.538,0-38.654,19.188S129.087,177.8,129.087,177.8l39.038-1.679s-1.631-21.347,4.25-38.616S200.16,89.291,149.753,82.1Z" transform="translate(31.477 -15.705)" fill="#17a2b8"/><path d="M136.714,103.615s10.966,11.052,5.43,28.561,32.62,17.029,32.62,17.029-1.046,6.179-1.286,11.062c0,0-16.54,12.472-42.156,9.3l-1.535-4.384-6.562-16.127Z" transform="translate(26.249 -15.705)" opacity="0.08"/><path d="M133.428,62.975s-2.322,7.061-5.353,11.062a3.722,3.722,0,0,1-5.229.691c-2.005-1.573-4.26-4.279-3.492-8.2l.5-6.812a6.639,6.639,0,0,1,5.469-5.382C130.338,53.2,135.039,58.763,133.428,62.975Z" transform="translate(71.289 -15.705)" fill="#f4a28c"/><path d="M138.268,63.5,129.835,82.1l10.976,8.145,2.2-17.48Z" transform="translate(51.395 -15.705)" fill="#f4a28c"/><path d="M126.9,62.543a30.345,30.345,0,0,1-6.073-3.156,6.15,6.15,0,0,1-2.648,6.226,5.027,5.027,0,0,1-6.37-.528l3.838-8.7a7.541,7.541,0,0,1,6.14-4.691,28.525,28.525,0,0,1,3.531-.182c2.945.058,5.92,3.31,8.9,2.571a1.784,1.784,0,0,1,2.149,2.187c-.739,2.878-2.993,6.812-7.215,6.716a7.052,7.052,0,0,1-2.255-.441Z" transform="translate(76.005 -15.705)" fill="#24285b"/><path d="M132.311,65.728s1.065-2.648-.959-3.281-3.617,3.176-1.094,4.663Z" transform="translate(62.687 -15.705)" fill="#f4a28c"/><path d="M123.839,67.331l.787,3.435a1.19,1.19,0,0,1-1.43,1.42l-2.811-.614Z" transform="translate(79.199 -15.705)" fill="#f4a28c"/><path d="M133.719,74.728s-2.514-3.454-2.523-5.67c0,0-3.377,6.447,1.746,12.04Z" transform="translate(60.415 -15.705)" fill="#ce8172" opacity="0.31"/><path d="M140,107.05l-8.635,34.538L109.736,149.9l-19.62-14.708,3.579-36.457,21.366,16.31Z" transform="translate(94.117 -15.705)" fill="#ffd200"/><path d="M95.239,115.041l19.821-15.034-1.708,9.229Z" transform="translate(113.938 -15.705)" fill="#ffd200"/><path d="M95.239,115.041l19.821-15.034-1.708,9.229Z" transform="translate(113.938 -15.705)" fill="#fff" opacity="0.37"/><path d="M99.24,118.342s6.917,16.713,19.677,20.358,21.107-1.919,21.107-1.919l-1.2,4.8-21.634,8.308-19.62-14.708Z" transform="translate(86.643 -15.705)" opacity="0.08"/><path d="M145.171,97.686a9.872,9.872,0,0,0-16.511,2.686c-4.663,10.985-10.016,30.48-2.024,51.635,12.232,32.38,60.442-3.358,60.442-3.358l-7.243-7.915s-25.4,11.992-35.5,5.756C135.961,141.271,157.691,112.25,145.171,97.686Z" transform="translate(14.626 -15.705)" fill="#17a2b8"/><path d="M145.171,97.686a9.872,9.872,0,0,0-16.511,2.686c-4.663,10.985-10.016,30.48-2.024,51.635,12.232,32.38,60.442-3.358,60.442-3.358l-7.243-7.915s-25.4,11.992-35.5,5.756C135.961,141.271,157.691,112.25,145.171,97.686Z" transform="translate(14.626 -15.705)" fill="#fff" opacity="0.2"/><path d="M120.761,147.555s8.443-1.65,9.086-8.366-9.277,3.195-11.033,0-5.094-3.31-4.308,1.545Z" transform="translate(79.974 -15.705)" fill="#f4a28c"/><path d="M122.53,113.458s-2.821-11.052-7.416-12.012c-2.753-.576-2.341,1.439-1.573,3.147a9.316,9.316,0,0,1,.787,5.066l-.086.652,6.2,4.73Z" transform="translate(88.739 -15.705)" fill="#f4a28c"/><path d="M132.08,115.041l-15.274-23.63-1.746,10.64Z" transform="translate(77.097 -15.705)" fill="#ffd200"/><path d="M132.08,115.041l-15.274-23.63-1.746,10.64Z" transform="translate(77.097 -15.705)" fill="#fff" opacity="0.37"/><path d="M161.27,223.281s-2.965,2.677-1.919,5.929-1.717,5.334-3.674,2.878-1.343-11.311-1.343-11.311l4.615-1.66Z" transform="translate(8.726 -15.705)" fill="#17a2b8"/><path d="M133.721,117.171l-.815,7.148-11.59-7.752,1-7.646Z" transform="translate(69.201 -15.705)" fill="#e6e6e6"/><path d="M157.082,238.957l6.591-1.784L145,184.924l7.464-8.635-34.711,1.5A22.306,22.306,0,0,0,126.123,194a50.435,50.435,0,0,1,8.692,8.635A203.047,203.047,0,0,1,157.082,238.957Z" transform="translate(42.808 -15.705)" fill="#24285b"/><rect width="7.867" height="28.859" transform="translate(75.742 91.126) rotate(170.05)" fill="#a5a5a5"/><rect width="7.455" height="28.859" transform="translate(123.111 91.192) rotate(170.05)" fill="#a5a5a5"/><rect width="7.55" height="28.859" transform="translate(114.108 90.712) rotate(170.05)" fill="#a5a5a5" opacity="0.44"/><rect width="7.455" height="28.859" transform="translate(121.736 141.142) rotate(170.05)" fill="#fff"/><rect width="7.55" height="28.859" transform="translate(114.106 141.289) rotate(170.05)" fill="#a5a5a5" opacity="0.44"/><rect width="7.55" height="28.859" transform="translate(131.84 90.717) rotate(170.05)" fill="#a5a5a5" opacity="0.44"/><rect width="8.433" height="28.859" transform="translate(93.186 62.965)" fill="#a5a5a5"/><rect width="7.407" height="28.859" transform="translate(84.6 62.965)" fill="#fff"/><rect width="87.478" height="42.684" transform="translate(63.013 151.144)" fill="#a5a5a5" opacity="0.4"/><rect width="7.867" height="28.859" transform="translate(75.743 192.459) rotate(170.05)" fill="#a5a5a5"/><rect width="8.433" height="28.859" transform="translate(84.676 164.969)" fill="#a5a5a5"/><rect width="7.407" height="28.859" transform="translate(76.08 164.969)" fill="#fff"/><rect width="7.867" height="28.859" transform="translate(76.036 141.104) rotate(170.05)" fill="#a5a5a5"/><rect width="8.433" height="28.859" transform="translate(93.369 113.622)" fill="#a5a5a5"/><rect width="7.407" height="28.859" transform="translate(84.772 113.622)" fill="#fff"/><rect width="87.478" height="18.296" transform="translate(63.013 203.738)" fill="#f2f2f2"/><circle cx="2.878" cy="2.878" r="2.878" transform="translate(103.874 208.919)" fill="#a5a5a5"/><rect width="7.455" height="28.859" transform="translate(113.149 192.425) rotate(170.05)" fill="#fff"/><rect width="7.55" height="28.859" transform="translate(105.519 192.57) rotate(170.05)" fill="#a5a5a5" opacity="0.44"/><rect width="7.455" height="28.859" transform="translate(128.178 192.419) rotate(170.05)" fill="#a5a5a5"/><rect width="7.55" height="28.859" transform="translate(120.548 192.564) rotate(170.05)" fill="#a5a5a5" opacity="0.44"/><path d="M156.161,176.126l1.046,25.462a12.079,12.079,0,0,1-6.888,11.4l-24.35,11.657-2.389-5.881,14.161-10.285a10.659,10.659,0,0,0,3.838-11.983L135.1,177.047Z" transform="translate(43.442 -15.705)" fill="#24285b"/></g></g></svg>