<svg xmlns="http://www.w3.org/2000/svg" xmlns:xlink="http://www.w3.org/1999/xlink" width="40" height="40" viewBox="0 0 40 40"><defs><clipPath id="a"><rect width="40" height="40" transform="translate(-89 1562)" fill="#fff"/></clipPath></defs><g transform="translate(89 -1562)" clip-path="url(#a)"><g transform="translate(-89 1563.317)"><g transform="translate(0 25.842)"><path d="M39.406,34.1H24.533a4.574,4.574,0,1,1,0-9.148H39.406a.594.594,0,1,0,0-1.188H5.762a5.762,5.762,0,1,0,0,11.524H39.406a.594.594,0,1,0,0-1.188Zm-29,0a4.575,4.575,0,0,1-3.9-6.969.594.594,0,1,0-1.012-.623A5.758,5.758,0,0,0,6.9,34.1H5.762a4.574,4.574,0,1,1,0-9.148H21.034a5.753,5.753,0,0,0,0,9.148Z" transform="translate(0 -23.764)" fill="#fff"/></g><g transform="translate(22.217 33.98)"><path d="M35.837,30.885h-15.8a.594.594,0,1,0,0,1.188h15.8a.594.594,0,1,0,0-1.188Z" transform="translate(-19.439 -30.885)" fill="#fff"/></g><g transform="translate(22.217 28.04)"><path d="M35.837,25.687h-15.8a.594.594,0,1,0,0,1.188h15.8a.594.594,0,0,0,0-1.188Z" transform="translate(-19.44 -25.687)" fill="#fff"/></g><g transform="translate(21.028 32)"><path d="M35.59,29.152h-16.6a.594.594,0,1,0,0,1.188h16.6a.594.594,0,1,0,0-1.188Z" transform="translate(-18.4 -29.152)" fill="#fff"/></g><g transform="translate(21.029 30.02)"><path d="M35.589,27.42H18.995a.594.594,0,1,0,0,1.188H35.589a.594.594,0,1,0,0-1.188Z" transform="translate(-18.4 -27.42)" fill="#fff"/></g><g transform="translate(12.243)"><path d="M29.112,12.034a.594.594,0,1,0-.893.783,5.169,5.169,0,0,1,.683,5.754c-1.5,3.618-3.855,5.607-5.418,6.211a2.3,2.3,0,0,1-1.788.091,2.375,2.375,0,0,0-2.039,0,2.3,2.3,0,0,1-1.788-.091c-1.564-.6-3.921-2.592-5.418-6.211a5.332,5.332,0,0,1,.131-5,6.7,6.7,0,0,1,4.756-2.955,2.423,2.423,0,0,1,2.192.814,2.978,2.978,0,0,1,.571,1.045.593.593,0,0,0,.574.448h0a.6.6,0,0,0,.575-.445,2.974,2.974,0,0,1,.572-1.048,2.423,2.423,0,0,1,2.192-.814,6.736,6.736,0,0,1,2.769,1,.594.594,0,1,0,.629-1.008,7.86,7.86,0,0,0-3.289-1.173,3.653,3.653,0,0,0-2.792.812,7.923,7.923,0,0,0-.176-1.153,6.479,6.479,0,0,0-.2-.695,6.133,6.133,0,0,0,6.02-6.124V1.746a.594.594,0,0,0-.594-.594h-.526a6.135,6.135,0,0,0-6.079,5.375,4.162,4.162,0,0,0-.865-.628.594.594,0,0,0-.569,1.043,4.076,4.076,0,0,1,1.807,3.418,3.635,3.635,0,0,0-2.923-.929,7.868,7.868,0,0,0-5.663,3.524,6.472,6.472,0,0,0-.211,6.069c1.35,3.264,3.74,5.958,6.088,6.865a3.43,3.43,0,0,0,2.724.057,1.208,1.208,0,0,1,1.023,0,2.764,2.764,0,0,0,1.192.255,4.278,4.278,0,0,0,1.532-.312c2.348-.906,4.738-3.6,6.088-6.865C31.389,15.668,30.284,13.37,29.112,12.034ZM25.787,2.341a4.944,4.944,0,0,1-4.87,4.87A4.944,4.944,0,0,1,25.787,2.341Z" transform="translate(-10.713 -1.152)" fill="#fff"/></g></g></g></svg>