<svg xmlns="http://www.w3.org/2000/svg" xmlns:xlink="http://www.w3.org/1999/xlink" width="40" height="40" viewBox="0 0 40 40"><defs><clipPath id="a"><rect width="40" height="40" transform="translate(90 388)" fill="#fff"/></clipPath></defs><g transform="translate(-90 -388)" clip-path="url(#a)"><g transform="translate(90 390.532)"><path d="M37.7,2.216H35a2.3,2.3,0,0,0-2.3,2.3v5.945a.594.594,0,1,0,1.188,0V4.517A1.115,1.115,0,0,1,35,3.4h2.7a1.115,1.115,0,0,1,1.114,1.114V34.85A1.115,1.115,0,0,1,37.7,35.963H35a1.115,1.115,0,0,1-1.114-1.114V12.442a.594.594,0,1,0-1.188,0v5.487a2.287,2.287,0,0,0-1.114-.288h-2.7a2.287,2.287,0,0,0-1.114.288V13.971a2.3,2.3,0,0,0-2.3-2.3h-4.16a2.287,2.287,0,0,0-1.114.288V4.517a2.3,2.3,0,0,0-2.3-2.3H11.106a2.3,2.3,0,0,0-2.3,2.3V5.938A2.287,2.287,0,0,0,7.691,5.65H2.3A2.3,2.3,0,0,0,0,7.952v7.342a.594.594,0,1,0,1.188,0V7.952A1.115,1.115,0,0,1,2.3,6.838h5.39A1.115,1.115,0,0,1,8.805,7.952v26.9a1.115,1.115,0,0,1-1.114,1.114H2.3A1.115,1.115,0,0,1,1.188,34.85V17.274a.594.594,0,1,0-1.188,0V34.85a2.3,2.3,0,0,0,2.3,2.3h5.39a2.3,2.3,0,0,0,1.708-.76,2.3,2.3,0,0,0,1.708.76h6.787a2.3,2.3,0,0,0,1.708-.76,2.3,2.3,0,0,0,1.708.76h4.16a2.3,2.3,0,0,0,1.708-.76,2.3,2.3,0,0,0,1.708.76h2.7a2.3,2.3,0,0,0,1.708-.76,2.3,2.3,0,0,0,1.708.76h2.7a2.3,2.3,0,0,0,2.3-2.3V4.517A2.3,2.3,0,0,0,37.7,2.216ZM19.007,13.971V34.85a1.115,1.115,0,0,1-1.114,1.113H11.107A1.115,1.115,0,0,1,9.993,34.85V4.517A1.115,1.115,0,0,1,11.107,3.4h6.787a1.115,1.115,0,0,1,1.114,1.114ZM20.2,16h4.21a.594.594,0,1,0,0-1.188H20.2v-.84a1.115,1.115,0,0,1,1.114-1.114h4.16a1.115,1.115,0,0,1,1.114,1.114v.84h-.2a.594.594,0,1,0,0,1.188h.2v.841H20.2V16ZM26.582,34.85a1.115,1.115,0,0,1-1.114,1.114h-4.16A1.115,1.115,0,0,1,20.2,34.85v-.84h6.387v.84Zm0-2.028H20.2V31.98h6.387Zm0-12.879v10.85H20.2V18.028h6.387ZM32.7,34.85a1.115,1.115,0,0,1-1.114,1.114h-2.7A1.115,1.115,0,0,1,27.77,34.85V19.942a1.115,1.115,0,0,1,1.114-1.114h2.7A1.115,1.115,0,0,1,32.7,19.942V34.85Z" transform="translate(0 -2.216)" fill="#fff"/><g transform="translate(1.739 7.303)"><path d="M7.443,8.606H2.116a.594.594,0,0,0,0,1.188H7.443a.594.594,0,0,0,0-1.188Z" transform="translate(-1.522 -8.606)" fill="#fff"/></g><g transform="translate(1.739 29.879)"><path d="M7.443,28.36H2.116a.594.594,0,0,0,0,1.188H7.443a.594.594,0,0,0,0-1.188Z" transform="translate(-1.522 -28.36)" fill="#fff"/></g><g transform="translate(11.243 3.805)"><path d="M15.758,5.545H10.431a.594.594,0,0,0,0,1.188h5.327a.594.594,0,0,0,0-1.188Z" transform="translate(-9.837 -5.545)" fill="#fff"/></g><g transform="translate(11.243 29.943)"><path d="M15.758,28.415H10.431a.594.594,0,1,0,0,1.188h5.327a.594.594,0,0,0,0-1.188Z" transform="translate(-9.837 -28.415)" fill="#fff"/></g><g transform="translate(11.243 6.088)"><path d="M15.758,7.543H10.431a.594.594,0,0,0,0,1.188h5.327a.594.594,0,0,0,0-1.188Z" transform="translate(-9.837 -7.543)" fill="#fff"/></g><g transform="translate(11.243 27.66)"><path d="M15.758,26.418H10.431a.594.594,0,0,0,0,1.188h5.327a.594.594,0,0,0,0-1.188Z" transform="translate(-9.837 -26.418)" fill="#fff"/></g><g transform="translate(29.639 20.845)"><path d="M26.529,20.455a.594.594,0,0,0-.594.594v7.483a.594.594,0,1,0,1.188,0V21.049A.594.594,0,0,0,26.529,20.455Z" transform="translate(-25.935 -20.455)" fill="#fff"/></g><g transform="translate(34.74 3.308)"><path d="M33.021,5.11H30.991a.594.594,0,1,0,0,1.188h2.029a.594.594,0,0,0,0-1.188Z" transform="translate(-30.397 -5.11)" fill="#fff"/></g><g transform="translate(34.74 5.359)"><path d="M33.021,6.9H30.991a.594.594,0,1,0,0,1.188h2.029a.594.594,0,0,0,0-1.188Z" transform="translate(-30.397 -6.905)" fill="#fff"/></g><g transform="translate(34.74 7.411)"><path d="M33.021,8.7H30.991a.594.594,0,1,0,0,1.188h2.029a.594.594,0,0,0,0-1.188Z" transform="translate(-30.397 -8.7)" fill="#fff"/></g></g></g></svg>