<svg xmlns="http://www.w3.org/2000/svg" xmlns:xlink="http://www.w3.org/1999/xlink" width="40" height="40" viewBox="0 0 40 40"><defs><clipPath id="a"><rect width="40" height="40" transform="translate(-87 1584)" fill="#fff"/></clipPath></defs><g transform="translate(87 -1584)" clip-path="url(#a)"><g transform="translate(-85.293 1584)"><path d="M32.027,32.76a.594.594,0,0,0-.594.594V36.36a2.455,2.455,0,0,1-2.452,2.452H5.648a2.986,2.986,0,0,1-2.672-1.677A2.966,2.966,0,0,1,5.648,32.88H19.363a.594.594,0,1,0,0-1.188H5.648A4.131,4.131,0,0,0,2.71,32.908l-.028.028V4.154A2.97,2.97,0,0,1,5.648,1.188H9.14A.594.594,0,1,0,9.14,0H5.648A4.159,4.159,0,0,0,1.494,4.154V35.846a4.115,4.115,0,0,0,.413,1.807A4.18,4.18,0,0,0,5.648,40H28.98a3.645,3.645,0,0,0,3.64-3.64V33.354A.594.594,0,0,0,32.027,32.76Z" transform="translate(-1.494)" fill="#fff"/><g transform="translate(9.033)"><path d="M31.16,2.12A3.653,3.653,0,0,0,27.851,0H9.991a.594.594,0,1,0,0,1.188h17.86A2.461,2.461,0,0,1,30.08,2.617a.594.594,0,0,0,1.079-.5Z" transform="translate(-9.397)" fill="#fff"/></g><g transform="translate(19.255 21.63)"><path d="M29.62,18.927a.594.594,0,0,0-.594.594v7.014a2.449,2.449,0,0,1-2.452,2.453H18.936a.594.594,0,1,0,0,1.188h7.638a3.638,3.638,0,0,0,3.64-3.641V19.521A.594.594,0,0,0,29.62,18.927Z" transform="translate(-18.342 -18.927)" fill="#fff"/></g><g transform="translate(2.851 33.711)"><path d="M29.745,29.5a.594.594,0,0,0-.594.594v1.752a.744.744,0,0,1-.743.743H4.583a.594.594,0,1,0,0,1.188H28.408a1.934,1.934,0,0,0,1.931-1.931V30.091A.594.594,0,0,0,29.745,29.5Z" transform="translate(-3.989 -29.497)" fill="#fff"/></g><g transform="translate(2.851 34.319)"><path d="M11.477,30.029H4.583a.594.594,0,1,0,0,1.188h6.894a.594.594,0,1,0,0-1.188Z" transform="translate(-3.989 -30.029)" fill="#fff"/></g><g transform="translate(11.726 34.319)"><path d="M26.555,30.029H12.348a.594.594,0,1,0,0,1.188H26.555a.594.594,0,1,0,0-1.188Z" transform="translate(-11.754 -30.029)" fill="#fff"/></g><g transform="translate(18.696 3.407)"><path d="M26.8,2.981a8.945,8.945,0,1,0,8.945,8.945A8.955,8.955,0,0,0,26.8,2.981Zm0,16.7a7.757,7.757,0,1,1,7.757-7.757A7.765,7.765,0,0,1,26.8,19.682Z" transform="translate(-17.853 -2.981)" fill="#fff"/></g><g transform="translate(25.262 5.894)"><path d="M25.977,5.157a2.379,2.379,0,1,0,2.379,2.379A2.382,2.382,0,0,0,25.977,5.157Zm0,3.57a1.191,1.191,0,1,1,1.191-1.191A1.192,1.192,0,0,1,25.977,8.727Z" transform="translate(-23.598 -5.157)" fill="#fff"/></g><g transform="translate(24.816 11.031)"><path d="M28.95,14.447h-.693v-4.2a.594.594,0,0,0-.594-.594H23.821a.594.594,0,0,0-.594.594v1.7a.594.594,0,0,0,.594.594h.673v1.907H23.8a.594.594,0,0,0-.594.594v1.7a.594.594,0,0,0,.594.594H28.95a.594.594,0,0,0,.594-.594v-1.7A.594.594,0,0,0,28.95,14.447Zm-.594,1.7H24.4v-.512h.693a.594.594,0,0,0,.594-.594V11.946a.594.594,0,0,0-.594-.594h-.673V10.84h2.653v4.2a.594.594,0,0,0,.594.594h.693v.512Z" transform="translate(-23.207 -9.652)" fill="#fff"/></g></g></g></svg>