<svg xmlns="http://www.w3.org/2000/svg" xmlns:xlink="http://www.w3.org/1999/xlink" width="40" height="40" viewBox="0 0 40 40"><defs><clipPath id="a"><rect width="40" height="40" transform="translate(125 363)" fill="#fff"/></clipPath></defs><g transform="translate(-125 -363)" clip-path="url(#a)"><g transform="translate(129.436 363)"><g transform="translate(0)"><path d="M34.415,21.774a.594.594,0,0,0,.594-.594V3.64A3.645,3.645,0,0,0,31.369,0H8.036A4.159,4.159,0,0,0,3.882,4.154V35.846a4.115,4.115,0,0,0,.412,1.807A4.181,4.181,0,0,0,8.036,40H31.369a3.645,3.645,0,0,0,3.64-3.64V33.354a.594.594,0,0,0-1.188,0V36.36a2.455,2.455,0,0,1-2.452,2.452H8.036a2.986,2.986,0,0,1-2.672-1.677A2.966,2.966,0,0,1,8.036,32.88H31.369a3.637,3.637,0,0,0,3.64-3.641V23.161a.594.594,0,0,0-1.188,0v6.078a2.449,2.449,0,0,1-2.452,2.453H8.036A4.131,4.131,0,0,0,5.1,32.908l-.028.029V4.154A2.97,2.97,0,0,1,8.036,1.188h.631V12.053a.594.594,0,0,0,.927.492l2.994-2.025,2.994,2.025a.594.594,0,0,0,.927-.492V7.427a.594.594,0,0,0-1.188,0v3.507l-2.4-1.623a.594.594,0,0,0-.665,0l-2.4,1.623V1.188H15.32V5.447a.594.594,0,0,0,1.188,0V1.188h14.86A2.455,2.455,0,0,1,33.821,3.64V21.18A.594.594,0,0,0,34.415,21.774Z" transform="translate(-3.882)" fill="#fff"/></g><g transform="translate(2.851 33.711)"><path d="M32.133,29.5a.594.594,0,0,0-.594.594v1.752a.744.744,0,0,1-.743.743H6.971a.594.594,0,0,0,0,1.188H30.8a1.934,1.934,0,0,0,1.931-1.931V30.091A.594.594,0,0,0,32.133,29.5Z" transform="translate(-6.377 -29.497)" fill="#fff"/></g><g transform="translate(2.851 34.318)"><path d="M30.052,30.029H6.971a.594.594,0,0,0,0,1.188H30.052a.594.594,0,0,0,0-1.188Z" transform="translate(-6.377 -30.029)" fill="#fff"/></g></g></g></svg>